<svg width="420" height="260" viewBox="0 0 420 260" fill="none" xmlns="http://www.w3.org/2000/svg">
<g clip-path="url(#clip0_43_13)">
<rect width="420" height="260" fill="#A9D18E"/>
<g filter="url(#filter0_d_43_13)">
<path d="M36.2563 99.44C37.0029 89.6267 40.7896 81.9467 47.6163 76.4C54.4429 70.8533 63.2963 68.08 74.1763 68.08C81.4296 68.08 87.6696 69.4133 92.8963 72.08C98.2296 74.64 102.23 78.16 104.896 82.64C107.67 87.12 109.056 92.1867 109.056 97.84C109.056 104.453 107.136 110.16 103.296 114.96C99.5629 119.76 94.6563 122.853 88.5763 124.24V125.04C95.5096 126.747 101.003 130.107 105.056 135.12C109.11 140.133 111.136 146.693 111.136 154.8C111.136 160.88 109.75 166.373 106.976 171.28C104.203 176.08 100.043 179.867 94.4963 182.64C88.9496 185.413 82.2829 186.8 74.4963 186.8C63.1896 186.8 53.9096 183.867 46.6562 178C39.4029 172.027 35.3496 163.6 34.4963 152.72H48.5763C49.3229 159.12 51.9363 164.347 56.4163 168.4C60.8963 172.453 66.8696 174.48 74.3363 174.48C81.8029 174.48 87.4563 172.56 91.2963 168.72C95.2429 164.773 97.2163 159.707 97.2163 153.52C97.2163 145.52 94.5496 139.76 89.2163 136.24C83.8829 132.72 75.8296 130.96 65.0563 130.96H61.3763V118.8H65.2163C75.0296 118.693 82.4429 117.093 87.4563 114C92.4696 110.8 94.9763 105.893 94.9763 99.28C94.9763 93.6267 93.1096 89.0933 89.3763 85.68C85.7496 82.2667 80.5229 80.56 73.6962 80.56C67.0829 80.56 61.7496 82.2667 57.6963 85.68C53.6429 89.0933 51.2429 93.68 50.4963 99.44H36.2563ZM236.651 121.2V133.52H172.811V121.2H236.651ZM302.473 174.32C316.019 163.44 326.633 154.533 334.312 147.6C341.993 140.56 348.446 133.253 353.673 125.68C359.006 118 361.673 110.48 361.673 103.12C361.673 96.1867 359.966 90.7467 356.553 86.8C353.246 82.7467 347.859 80.72 340.393 80.72C333.139 80.72 327.486 83.0133 323.433 87.6C319.486 92.08 317.353 98.1067 317.033 105.68H302.953C303.379 93.7333 307.006 84.5067 313.833 78C320.659 71.4933 329.459 68.24 340.233 68.24C351.219 68.24 359.913 71.28 366.313 77.36C372.819 83.44 376.073 91.8133 376.073 102.48C376.073 111.333 373.406 119.973 368.073 128.4C362.846 136.72 356.873 144.08 350.153 150.48C343.433 156.773 334.846 164.133 324.393 172.56H379.433V184.72H302.473V174.32Z" fill="black"/>
</g>
</g>
<rect x="0.5" y="0.5" width="419" height="259" stroke="#F75590"/>
<rect x="0.5" y="0.5" width="419" height="259" stroke="#29DCBE"/>
<rect x="0.5" y="0.5" width="419" height="259" stroke="#283A4E"/>
<defs>
<filter id="filter0_d_43_13" x="24.4963" y="55.08" width="378.936" height="152.72" filterUnits="userSpaceOnUse" color-interpolation-filters="sRGB">
<feFlood flood-opacity="0" result="BackgroundImageFix"/>
<feColorMatrix in="SourceAlpha" type="matrix" values="0 0 0 0 0 0 0 0 0 0 0 0 0 0 0 0 0 0 127 0" result="hardAlpha"/>
<feOffset dx="7" dy="4"/>
<feGaussianBlur stdDeviation="8.5"/>
<feComposite in2="hardAlpha" operator="out"/>
<feColorMatrix type="matrix" values="0 0 0 0 0 0 0 0 0 0 0 0 0 0 0 0 0 0 0.3 0"/>
<feBlend mode="normal" in2="BackgroundImageFix" result="effect1_dropShadow_43_13"/>
<feBlend mode="normal" in="SourceGraphic" in2="effect1_dropShadow_43_13" result="shape"/>
</filter>
<clipPath id="clip0_43_13">
<rect width="420" height="260" fill="white"/>
</clipPath>
</defs>
</svg>
