<svg width="420" height="260" viewBox="0 0 420 260" fill="none" xmlns="http://www.w3.org/2000/svg">
<g clip-path="url(#clip0_43_25)">
<rect width="420" height="260" fill="#AFABAB"/>
<g filter="url(#filter0_d_43_25)">
<path d="M107.211 82.96H51.0513V119.44C53.5046 116.027 57.1313 113.253 61.9313 111.12C66.7313 108.88 71.9046 107.76 77.4513 107.76C86.3046 107.76 93.5046 109.627 99.0513 113.36C104.598 116.987 108.545 121.733 110.891 127.6C113.345 133.36 114.571 139.493 114.571 146C114.571 153.68 113.131 160.56 110.251 166.64C107.371 172.72 102.945 177.52 96.9713 181.04C91.1046 184.56 83.7979 186.32 75.0513 186.32C63.8513 186.32 54.7846 183.44 47.8513 177.68C40.9179 171.92 36.7046 164.24 35.2113 154.64H49.4513C50.8379 160.72 53.7713 165.467 58.2513 168.88C62.7313 172.293 68.3846 174 75.2113 174C83.6379 174 89.9846 171.493 94.2513 166.48C98.5179 161.36 100.651 154.64 100.651 146.32C100.651 138 98.5179 131.6 94.2513 127.12C89.9846 122.533 83.6913 120.24 75.3713 120.24C69.7179 120.24 64.7579 121.627 60.4913 124.4C56.3313 127.067 53.2913 130.747 51.3713 135.44H37.6113V70.16H107.211V82.96ZM239.776 121.2V133.52H175.936V121.2H239.776ZM305.598 174.32C319.144 163.44 329.758 154.533 337.438 147.6C345.118 140.56 351.571 133.253 356.798 125.68C362.131 118 364.798 110.48 364.798 103.12C364.798 96.1867 363.091 90.7467 359.678 86.8C356.371 82.7467 350.984 80.72 343.518 80.72C336.264 80.72 330.611 83.0133 326.558 87.6C322.611 92.08 320.478 98.1067 320.158 105.68H306.078C306.504 93.7333 310.131 84.5067 316.958 78C323.784 71.4933 332.584 68.24 343.358 68.24C354.344 68.24 363.038 71.28 369.438 77.36C375.944 83.44 379.198 91.8133 379.198 102.48C379.198 111.333 376.531 119.973 371.198 128.4C365.971 136.72 359.998 144.08 353.278 150.48C346.558 156.773 337.971 164.133 327.518 172.56H382.558V184.72H305.598V174.32Z" fill="black"/>
</g>
</g>
<rect x="0.5" y="0.5" width="419" height="259" stroke="#F75590"/>
<rect x="0.5" y="0.5" width="419" height="259" stroke="#29DCBE"/>
<rect x="0.5" y="0.5" width="419" height="259" stroke="#283A4E"/>
<defs>
<filter id="filter0_d_43_25" x="25.2113" y="55.24" width="381.346" height="152.08" filterUnits="userSpaceOnUse" color-interpolation-filters="sRGB">
<feFlood flood-opacity="0" result="BackgroundImageFix"/>
<feColorMatrix in="SourceAlpha" type="matrix" values="0 0 0 0 0 0 0 0 0 0 0 0 0 0 0 0 0 0 127 0" result="hardAlpha"/>
<feOffset dx="7" dy="4"/>
<feGaussianBlur stdDeviation="8.5"/>
<feComposite in2="hardAlpha" operator="out"/>
<feColorMatrix type="matrix" values="0 0 0 0 0 0 0 0 0 0 0 0 0 0 0 0 0 0 0.3 0"/>
<feBlend mode="normal" in2="BackgroundImageFix" result="effect1_dropShadow_43_25"/>
<feBlend mode="normal" in="SourceGraphic" in2="effect1_dropShadow_43_25" result="shape"/>
</filter>
<clipPath id="clip0_43_25">
<rect width="420" height="260" fill="white"/>
</clipPath>
</defs>
</svg>
