<svg width="420" height="260" viewBox="0 0 420 260" fill="none" xmlns="http://www.w3.org/2000/svg">
<g clip-path="url(#clip0_43_29)">
<rect width="420" height="260" fill="#7030A0"/>
<g filter="url(#filter0_d_43_29)">
<path d="M28.7594 160.24V149.2L84.9194 71.44H102.359V147.6H118.359V160.24H102.359V186H87.9594V160.24H28.7594ZM88.5994 86.64L45.5594 147.6H88.5994V86.64ZM238.761 121.2V133.52H174.921V121.2H238.761ZM306.022 99.44C306.769 89.6267 310.555 81.9467 317.382 76.4C324.209 70.8533 333.062 68.08 343.942 68.08C351.195 68.08 357.435 69.4133 362.662 72.08C367.995 74.64 371.995 78.16 374.662 82.64C377.435 87.12 378.822 92.1867 378.822 97.84C378.822 104.453 376.902 110.16 373.062 114.96C369.329 119.76 364.422 122.853 358.342 124.24V125.04C365.275 126.747 370.769 130.107 374.822 135.12C378.875 140.133 380.902 146.693 380.902 154.8C380.902 160.88 379.515 166.373 376.742 171.28C373.969 176.08 369.809 179.867 364.262 182.64C358.715 185.413 352.049 186.8 344.262 186.8C332.955 186.8 323.675 183.867 316.422 178C309.169 172.027 305.115 163.6 304.262 152.72H318.342C319.089 159.12 321.702 164.347 326.182 168.4C330.662 172.453 336.635 174.48 344.102 174.48C351.569 174.48 357.222 172.56 361.062 168.72C365.009 164.773 366.982 159.707 366.982 153.52C366.982 145.52 364.315 139.76 358.982 136.24C353.649 132.72 345.595 130.96 334.822 130.96H331.142V118.8H334.982C344.795 118.693 352.209 117.093 357.222 114C362.235 110.8 364.742 105.893 364.742 99.28C364.742 93.6267 362.875 89.0933 359.142 85.68C355.515 82.2667 350.289 80.56 343.462 80.56C336.849 80.56 331.515 82.2667 327.462 85.68C323.409 89.0933 321.009 93.68 320.262 99.44H306.022Z" fill="black"/>
</g>
</g>
<rect x="0.5" y="0.5" width="419" height="259" stroke="#F75590"/>
<rect x="0.5" y="0.5" width="419" height="259" stroke="#29DCBE"/>
<rect x="0.5" y="0.5" width="419" height="259" stroke="#283A4E"/>
<defs>
<filter id="filter0_d_43_29" x="18.7593" y="55.08" width="386.143" height="152.72" filterUnits="userSpaceOnUse" color-interpolation-filters="sRGB">
<feFlood flood-opacity="0" result="BackgroundImageFix"/>
<feColorMatrix in="SourceAlpha" type="matrix" values="0 0 0 0 0 0 0 0 0 0 0 0 0 0 0 0 0 0 127 0" result="hardAlpha"/>
<feOffset dx="7" dy="4"/>
<feGaussianBlur stdDeviation="8.5"/>
<feComposite in2="hardAlpha" operator="out"/>
<feColorMatrix type="matrix" values="0 0 0 0 0 0 0 0 0 0 0 0 0 0 0 0 0 0 0.3 0"/>
<feBlend mode="normal" in2="BackgroundImageFix" result="effect1_dropShadow_43_29"/>
<feBlend mode="normal" in="SourceGraphic" in2="effect1_dropShadow_43_29" result="shape"/>
</filter>
<clipPath id="clip0_43_29">
<rect width="420" height="260" fill="white"/>
</clipPath>
</defs>
</svg>
