<svg width="420" height="260" viewBox="0 0 420 260" fill="none" xmlns="http://www.w3.org/2000/svg">
<g clip-path="url(#clip0_43_31)">
<rect width="420" height="260" fill="#FFD966"/>
<g filter="url(#filter0_d_43_31)">
<path d="M42.58 83.6V70.32H72.66V186H57.94V83.6H42.58ZM225.926 133.68H191.846V168.24H178.246V133.68H144.326V121.36H178.246V86.64H191.846V121.36H225.926V133.68ZM291.881 99.44C292.628 89.6267 296.415 81.9467 303.241 76.4C310.068 70.8533 318.921 68.08 329.801 68.08C337.055 68.08 343.295 69.4133 348.521 72.08C353.855 74.64 357.855 78.16 360.521 82.64C363.295 87.12 364.681 92.1867 364.681 97.84C364.681 104.453 362.761 110.16 358.921 114.96C355.188 119.76 350.281 122.853 344.201 124.24V125.04C351.135 126.747 356.628 130.107 360.681 135.12C364.735 140.133 366.761 146.693 366.761 154.8C366.761 160.88 365.375 166.373 362.601 171.28C359.828 176.08 355.668 179.867 350.121 182.64C344.575 185.413 337.908 186.8 330.121 186.8C318.815 186.8 309.535 183.867 302.281 178C295.028 172.027 290.975 163.6 290.121 152.72H304.201C304.948 159.12 307.561 164.347 312.041 168.4C316.521 172.453 322.495 174.48 329.961 174.48C337.428 174.48 343.081 172.56 346.921 168.72C350.868 164.773 352.841 159.707 352.841 153.52C352.841 145.52 350.175 139.76 344.841 136.24C339.508 132.72 331.455 130.96 320.681 130.96H317.001V118.8H320.841C330.655 118.693 338.068 117.093 343.081 114C348.095 110.8 350.601 105.893 350.601 99.28C350.601 93.6267 348.735 89.0933 345.001 85.68C341.375 82.2667 336.148 80.56 329.321 80.56C322.708 80.56 317.375 82.2667 313.321 85.68C309.268 89.0933 306.868 93.68 306.121 99.44H291.881Z" fill="black"/>
</g>
</g>
<rect x="0.5" y="0.5" width="419" height="259" stroke="#F75590"/>
<rect x="0.5" y="0.5" width="419" height="259" stroke="#29DCBE"/>
<rect x="0.5" y="0.5" width="419" height="259" stroke="#283A4E"/>
<defs>
<filter id="filter0_d_43_31" x="32.58" y="55.08" width="358.181" height="152.72" filterUnits="userSpaceOnUse" color-interpolation-filters="sRGB">
<feFlood flood-opacity="0" result="BackgroundImageFix"/>
<feColorMatrix in="SourceAlpha" type="matrix" values="0 0 0 0 0 0 0 0 0 0 0 0 0 0 0 0 0 0 127 0" result="hardAlpha"/>
<feOffset dx="7" dy="4"/>
<feGaussianBlur stdDeviation="8.5"/>
<feComposite in2="hardAlpha" operator="out"/>
<feColorMatrix type="matrix" values="0 0 0 0 0 0 0 0 0 0 0 0 0 0 0 0 0 0 0.3 0"/>
<feBlend mode="normal" in2="BackgroundImageFix" result="effect1_dropShadow_43_31"/>
<feBlend mode="normal" in="SourceGraphic" in2="effect1_dropShadow_43_31" result="shape"/>
</filter>
<clipPath id="clip0_43_31">
<rect width="420" height="260" fill="white"/>
</clipPath>
</defs>
</svg>
