<svg width="420" height="260" viewBox="0 0 420 260" fill="none" xmlns="http://www.w3.org/2000/svg">
<g clip-path="url(#clip0_43_39)">
<rect width="420" height="260" fill="#ECD7C0"/>
<g filter="url(#filter0_d_43_39)">
<path d="M25.3631 174.32C38.9098 163.44 49.5231 154.533 57.2031 147.6C64.8831 140.56 71.3365 133.253 76.5631 125.68C81.8965 118 84.5631 110.48 84.5631 103.12C84.5631 96.1867 82.8565 90.7467 79.4431 86.8C76.1365 82.7467 70.7498 80.72 63.2831 80.72C56.0298 80.72 50.3765 83.0133 46.3231 87.6C42.3765 92.08 40.2431 98.1067 39.9231 105.68H25.8431C26.2698 93.7333 29.8965 84.5067 36.7231 78C43.5498 71.4933 52.3498 68.24 63.1231 68.24C74.1098 68.24 82.8031 71.28 89.2031 77.36C95.7098 83.44 98.9631 91.8133 98.9631 102.48C98.9631 111.333 96.2965 119.973 90.9631 128.4C85.7365 136.72 79.7631 144.08 73.0431 150.48C66.3231 156.773 57.7365 164.133 47.2831 172.56H102.323V184.72H25.3631V174.32ZM247.411 133.68H213.331V168.24H199.731V133.68H165.811V121.36H199.731V86.64H213.331V121.36H247.411V133.68ZM311.926 174.32C325.472 163.44 336.086 154.533 343.766 147.6C351.446 140.56 357.899 133.253 363.126 125.68C368.459 118 371.126 110.48 371.126 103.12C371.126 96.1867 369.419 90.7467 366.006 86.8C362.699 82.7467 357.312 80.72 349.846 80.72C342.592 80.72 336.939 83.0133 332.886 87.6C328.939 92.08 326.806 98.1067 326.486 105.68H312.406C312.832 93.7333 316.459 84.5067 323.286 78C330.112 71.4933 338.912 68.24 349.686 68.24C360.672 68.24 369.366 71.28 375.766 77.36C382.272 83.44 385.526 91.8133 385.526 102.48C385.526 111.333 382.859 119.973 377.526 128.4C372.299 136.72 366.326 144.08 359.606 150.48C352.886 156.773 344.299 164.133 333.846 172.56H388.886V184.72H311.926V174.32Z" fill="black"/>
</g>
</g>
<rect x="0.5" y="0.5" width="419" height="259" stroke="#F75590"/>
<rect x="0.5" y="0.5" width="419" height="259" stroke="#29DCBE"/>
<rect x="0.5" y="0.5" width="419" height="259" stroke="#283A4E"/>
<defs>
<filter id="filter0_d_43_39" x="15.3632" y="55.24" width="397.522" height="150.48" filterUnits="userSpaceOnUse" color-interpolation-filters="sRGB">
<feFlood flood-opacity="0" result="BackgroundImageFix"/>
<feColorMatrix in="SourceAlpha" type="matrix" values="0 0 0 0 0 0 0 0 0 0 0 0 0 0 0 0 0 0 127 0" result="hardAlpha"/>
<feOffset dx="7" dy="4"/>
<feGaussianBlur stdDeviation="8.5"/>
<feComposite in2="hardAlpha" operator="out"/>
<feColorMatrix type="matrix" values="0 0 0 0 0 0 0 0 0 0 0 0 0 0 0 0 0 0 0.3 0"/>
<feBlend mode="normal" in2="BackgroundImageFix" result="effect1_dropShadow_43_39"/>
<feBlend mode="normal" in="SourceGraphic" in2="effect1_dropShadow_43_39" result="shape"/>
</filter>
<clipPath id="clip0_43_39">
<rect width="420" height="260" fill="white"/>
</clipPath>
</defs>
</svg>
