<svg width="428" height="268" viewBox="0 0 428 268" fill="none" xmlns="http://www.w3.org/2000/svg">
<g filter="url(#filter0_d_43_41)">
<g clip-path="url(#clip0_43_41)">
<rect x="4" width="420" height="260" fill="#548235"/>
<g filter="url(#filter1_d_43_41)">
<path d="M43.6969 160.24V149.2L99.8569 71.44H117.297V147.6H133.297V160.24H117.297V186H102.897V160.24H43.6969ZM103.537 86.64L60.4969 147.6H103.537V86.64ZM276.098 133.68H242.018V168.24H228.418V133.68H194.498V121.36H228.418V86.64H242.018V121.36H276.098V133.68ZM338.533 83.6V70.32H368.613V186H353.893V83.6H338.533Z" fill="black"/>
</g>
</g>
<rect x="4.5" y="0.5" width="419" height="259" stroke="#F75590"/>
<rect x="4.5" y="0.5" width="419" height="259" stroke="#29DCBE"/>
<rect x="4.5" y="0.5" width="419" height="259" stroke="#283A4E"/>
</g>
<defs>
<filter id="filter0_d_43_41" x="0" y="0" width="428" height="268" filterUnits="userSpaceOnUse" color-interpolation-filters="sRGB">
<feFlood flood-opacity="0" result="BackgroundImageFix"/>
<feColorMatrix in="SourceAlpha" type="matrix" values="0 0 0 0 0 0 0 0 0 0 0 0 0 0 0 0 0 0 127 0" result="hardAlpha"/>
<feOffset dy="4"/>
<feGaussianBlur stdDeviation="2"/>
<feComposite in2="hardAlpha" operator="out"/>
<feColorMatrix type="matrix" values="0 0 0 0 0 0 0 0 0 0 0 0 0 0 0 0 0 0 0.25 0"/>
<feBlend mode="normal" in2="BackgroundImageFix" result="effect1_dropShadow_43_41"/>
<feBlend mode="normal" in="SourceGraphic" in2="effect1_dropShadow_43_41" result="shape"/>
</filter>
<filter id="filter1_d_43_41" x="33.6969" y="57.3199" width="358.916" height="149.68" filterUnits="userSpaceOnUse" color-interpolation-filters="sRGB">
<feFlood flood-opacity="0" result="BackgroundImageFix"/>
<feColorMatrix in="SourceAlpha" type="matrix" values="0 0 0 0 0 0 0 0 0 0 0 0 0 0 0 0 0 0 127 0" result="hardAlpha"/>
<feOffset dx="7" dy="4"/>
<feGaussianBlur stdDeviation="8.5"/>
<feComposite in2="hardAlpha" operator="out"/>
<feColorMatrix type="matrix" values="0 0 0 0 0 0 0 0 0 0 0 0 0 0 0 0 0 0 0.3 0"/>
<feBlend mode="normal" in2="BackgroundImageFix" result="effect1_dropShadow_43_41"/>
<feBlend mode="normal" in="SourceGraphic" in2="effect1_dropShadow_43_41" result="shape"/>
</filter>
<clipPath id="clip0_43_41">
<rect x="4" width="420" height="260" fill="white"/>
</clipPath>
</defs>
</svg>
