<svg width="420" height="260" viewBox="0 0 420 260" fill="none" xmlns="http://www.w3.org/2000/svg">
<g clip-path="url(#clip0_43_43)">
<rect width="420" height="260" fill="#843C0C"/>
<g filter="url(#filter0_d_43_43)">
<path d="M25.7094 99.44C26.456 89.6267 30.2427 81.9467 37.0694 76.4C43.896 70.8533 52.7494 68.08 63.6294 68.08C70.8827 68.08 77.1227 69.4133 82.3494 72.08C87.6827 74.64 91.6827 78.16 94.3494 82.64C97.1227 87.12 98.5094 92.1867 98.5094 97.84C98.5094 104.453 96.5894 110.16 92.7494 114.96C89.016 119.76 84.1094 122.853 78.0294 124.24V125.04C84.9627 126.747 90.456 130.107 94.5094 135.12C98.5627 140.133 100.589 146.693 100.589 154.8C100.589 160.88 99.2027 166.373 96.4294 171.28C93.656 176.08 89.496 179.867 83.9494 182.64C78.4027 185.413 71.736 186.8 63.9494 186.8C52.6427 186.8 43.3627 183.867 36.1094 178C28.856 172.027 24.8027 163.6 23.9494 152.72H38.0294C38.776 159.12 41.3894 164.347 45.8694 168.4C50.3494 172.453 56.3227 174.48 63.7894 174.48C71.256 174.48 76.9094 172.56 80.7494 168.72C84.696 164.773 86.6694 159.707 86.6694 153.52C86.6694 145.52 84.0027 139.76 78.6694 136.24C73.336 132.72 65.2827 130.96 54.5094 130.96H50.8294V118.8H54.6694C64.4827 118.693 71.896 117.093 76.9094 114C81.9227 110.8 84.4294 105.893 84.4294 99.28C84.4294 93.6267 82.5627 89.0933 78.8294 85.68C75.2027 82.2667 69.976 80.56 63.1494 80.56C56.536 80.56 51.2027 82.2667 47.1494 85.68C43.096 89.0933 40.696 93.68 39.9494 99.44H25.7094ZM248.504 133.68H214.424V168.24H200.824V133.68H166.904V121.36H200.824V86.64H214.424V121.36H248.504V133.68ZM313.019 174.32C326.566 163.44 337.179 154.533 344.859 147.6C352.539 140.56 358.993 133.253 364.219 125.68C369.553 118 372.219 110.48 372.219 103.12C372.219 96.1867 370.513 90.7467 367.099 86.8C363.793 82.7467 358.406 80.72 350.939 80.72C343.686 80.72 338.033 83.0133 333.979 87.6C330.033 92.08 327.899 98.1067 327.579 105.68H313.499C313.926 93.7333 317.553 84.5067 324.379 78C331.206 71.4933 340.006 68.24 350.779 68.24C361.766 68.24 370.459 71.28 376.859 77.36C383.366 83.44 386.619 91.8133 386.619 102.48C386.619 111.333 383.953 119.973 378.619 128.4C373.393 136.72 367.419 144.08 360.699 150.48C353.979 156.773 345.393 164.133 334.939 172.56H389.979V184.72H313.019V174.32Z" fill="black"/>
</g>
</g>
<rect x="0.5" y="0.5" width="419" height="259" stroke="#F75590"/>
<rect x="0.5" y="0.5" width="419" height="259" stroke="#29DCBE"/>
<rect x="0.5" y="0.5" width="419" height="259" stroke="#283A4E"/>
<defs>
<filter id="filter0_d_43_43" x="13.9495" y="55.08" width="400.03" height="152.72" filterUnits="userSpaceOnUse" color-interpolation-filters="sRGB">
<feFlood flood-opacity="0" result="BackgroundImageFix"/>
<feColorMatrix in="SourceAlpha" type="matrix" values="0 0 0 0 0 0 0 0 0 0 0 0 0 0 0 0 0 0 127 0" result="hardAlpha"/>
<feOffset dx="7" dy="4"/>
<feGaussianBlur stdDeviation="8.5"/>
<feComposite in2="hardAlpha" operator="out"/>
<feColorMatrix type="matrix" values="0 0 0 0 0 0 0 0 0 0 0 0 0 0 0 0 0 0 0.3 0"/>
<feBlend mode="normal" in2="BackgroundImageFix" result="effect1_dropShadow_43_43"/>
<feBlend mode="normal" in="SourceGraphic" in2="effect1_dropShadow_43_43" result="shape"/>
</filter>
<clipPath id="clip0_43_43">
<rect width="420" height="260" fill="white"/>
</clipPath>
</defs>
</svg>
