<svg width="420" height="260" viewBox="0 0 420 260" fill="none" xmlns="http://www.w3.org/2000/svg">
<g clip-path="url(#clip0_43_47)">
<rect width="420" height="260" fill="#4472C4"/>
<g filter="url(#filter0_d_43_47)">
<path d="M24.6156 99.44C25.3623 89.6267 29.149 81.9467 35.9756 76.4C42.8023 70.8533 51.6556 68.08 62.5356 68.08C69.789 68.08 76.029 69.4133 81.2556 72.08C86.589 74.64 90.589 78.16 93.2556 82.64C96.029 87.12 97.4156 92.1867 97.4156 97.84C97.4156 104.453 95.4956 110.16 91.6556 114.96C87.9223 119.76 83.0156 122.853 76.9356 124.24V125.04C83.869 126.747 89.3623 130.107 93.4156 135.12C97.469 140.133 99.4956 146.693 99.4956 154.8C99.4956 160.88 98.109 166.373 95.3356 171.28C92.5623 176.08 88.4023 179.867 82.8556 182.64C77.309 185.413 70.6423 186.8 62.8556 186.8C51.549 186.8 42.269 183.867 35.0156 178C27.7623 172.027 23.709 163.6 22.8556 152.72H36.9356C37.6823 159.12 40.2956 164.347 44.7756 168.4C49.2556 172.453 55.229 174.48 62.6956 174.48C70.1623 174.48 75.8156 172.56 79.6556 168.72C83.6023 164.773 85.5756 159.707 85.5756 153.52C85.5756 145.52 82.909 139.76 77.5756 136.24C72.2423 132.72 64.189 130.96 53.4156 130.96H49.7356V118.8H53.5756C63.389 118.693 70.8023 117.093 75.8156 114C80.829 110.8 83.3356 105.893 83.3356 99.28C83.3356 93.6267 81.469 89.0933 77.7356 85.68C74.109 82.2667 68.8823 80.56 62.0556 80.56C55.4423 80.56 50.109 82.2667 46.0556 85.68C42.0023 89.0933 39.6023 93.68 38.8556 99.44H24.6156ZM247.411 133.68H213.331V168.24H199.731V133.68H165.811V121.36H199.731V86.64H213.331V121.36H247.411V133.68ZM313.366 99.44C314.112 89.6267 317.899 81.9467 324.726 76.4C331.552 70.8533 340.406 68.08 351.286 68.08C358.539 68.08 364.779 69.4133 370.006 72.08C375.339 74.64 379.339 78.16 382.006 82.64C384.779 87.12 386.166 92.1867 386.166 97.84C386.166 104.453 384.246 110.16 380.406 114.96C376.672 119.76 371.766 122.853 365.686 124.24V125.04C372.619 126.747 378.112 130.107 382.166 135.12C386.219 140.133 388.246 146.693 388.246 154.8C388.246 160.88 386.859 166.373 384.086 171.28C381.312 176.08 377.152 179.867 371.606 182.64C366.059 185.413 359.392 186.8 351.606 186.8C340.299 186.8 331.019 183.867 323.766 178C316.512 172.027 312.459 163.6 311.606 152.72H325.686C326.432 159.12 329.046 164.347 333.526 168.4C338.006 172.453 343.979 174.48 351.446 174.48C358.912 174.48 364.566 172.56 368.406 168.72C372.352 164.773 374.326 159.707 374.326 153.52C374.326 145.52 371.659 139.76 366.326 136.24C360.992 132.72 352.939 130.96 342.166 130.96H338.486V118.8H342.326C352.139 118.693 359.552 117.093 364.566 114C369.579 110.8 372.086 105.893 372.086 99.28C372.086 93.6267 370.219 89.0933 366.486 85.68C362.859 82.2667 357.632 80.56 350.806 80.56C344.192 80.56 338.859 82.2667 334.806 85.68C330.752 89.0933 328.352 93.68 327.606 99.44H313.366Z" fill="black"/>
</g>
</g>
<rect x="0.5" y="0.5" width="419" height="259" stroke="#F75590"/>
<rect x="0.5" y="0.5" width="419" height="259" stroke="#29DCBE"/>
<rect x="0.5" y="0.5" width="419" height="259" stroke="#283A4E"/>
<defs>
<filter id="filter0_d_43_47" x="12.8556" y="55.0801" width="399.39" height="152.72" filterUnits="userSpaceOnUse" color-interpolation-filters="sRGB">
<feFlood flood-opacity="0" result="BackgroundImageFix"/>
<feColorMatrix in="SourceAlpha" type="matrix" values="0 0 0 0 0 0 0 0 0 0 0 0 0 0 0 0 0 0 127 0" result="hardAlpha"/>
<feOffset dx="7" dy="4"/>
<feGaussianBlur stdDeviation="8.5"/>
<feComposite in2="hardAlpha" operator="out"/>
<feColorMatrix type="matrix" values="0 0 0 0 0 0 0 0 0 0 0 0 0 0 0 0 0 0 0.3 0"/>
<feBlend mode="normal" in2="BackgroundImageFix" result="effect1_dropShadow_43_47"/>
<feBlend mode="normal" in="SourceGraphic" in2="effect1_dropShadow_43_47" result="shape"/>
</filter>
<clipPath id="clip0_43_47">
<rect width="420" height="260" fill="white"/>
</clipPath>
</defs>
</svg>
