<svg width="185" height="100" viewBox="0 0 185 100" fill="none" xmlns="http://www.w3.org/2000/svg">
<path d="M49.6953 29.7617L17.2734 62.5742L-3.52734 41.9688L32.8984 5.64062C35.9583 2.125 39.4089 0.367188 43.25 0.367188C47.1562 0.367188 50.8346 2.125 54.2852 5.64062L85.0469 37.1836L116.492 6.03125C120.203 2.25521 123.914 0.367188 127.625 0.367188C131.01 0.367188 133.908 1.96224 136.316 5.15234L184.266 52.6133L178.113 60.0352L148.914 30.1523C148.068 28.9805 146.831 28.1341 145.203 27.6133C143.641 27.0924 142.013 26.832 140.32 26.832C138.432 26.832 136.707 27.0924 135.145 27.6133C133.647 28.1341 132.475 28.9805 131.629 30.1523L98.0352 62.5742L66.4922 30.1523C64.3438 28.069 61.4792 27.0273 57.8984 27.0273C54.7083 27.0273 51.974 27.9388 49.6953 29.7617ZM123.914 81.4219L142.273 64.625L160.047 81.8125L141.883 99.7812L123.914 81.4219Z" fill="#F75590"/>
</svg>
