<svg width="140" height="122" viewBox="0 0 140 122" fill="none" xmlns="http://www.w3.org/2000/svg">
<path d="M0.5 97.1953C0.695312 93.4193 3.59245 89.3177 9.19141 84.8906C14.7904 80.4635 22.0169 75.8737 30.8711 71.1211C39.7253 66.3685 46.7891 62.5924 52.0625 59.793C57.401 56.9935 60.0703 55.2031 60.0703 54.4219L30.8711 35.1836C28.7878 33.8815 26.9323 31.7005 25.3047 28.6406C24.5234 27.013 24.1328 24.5391 24.1328 21.2188C24.1328 20.112 24.1979 19.2982 24.3281 18.7773L26.4766 12.8203L31.457 8.03516C32.9544 6.53776 34.2891 5.52865 35.4609 5.00781C37.8698 3.77083 40.7995 2.76172 44.25 1.98047C47.7656 1.19922 51.3138 0.808594 54.8945 0.808594C62.9023 0.808594 69.0872 2.79427 73.4492 6.76562L97.8633 29.0312L91.7109 35.3789L73.4492 21.0234C73.319 21.0234 72.7331 20.6328 71.6914 19.8516C70.6497 19.0052 69.5104 18.3216 68.2734 17.8008C67.1016 17.2799 65.7669 17.0195 64.2695 17.0195C60.9492 17.0195 57.3034 18.3542 53.332 21.0234C53.0065 21.2839 52.7135 22.1953 52.4531 23.7578C52.0625 25.3854 51.8672 26.8503 51.8672 28.1523C51.8672 28.7383 51.9323 29.1615 52.0625 29.4219C52.1927 29.8125 52.2578 30.3333 52.2578 30.9844C52.974 32.4818 55.0573 34.9557 58.5078 38.4062L121.301 94.3633L139.27 113.211L132.922 118.777C132.401 118.777 128.007 115.392 119.738 108.621C111.47 101.785 103.658 95.0794 96.3008 88.5039C88.944 81.9284 85.2656 78.2826 85.2656 77.5664C73.2214 79.7148 62.6745 84.0443 53.625 90.5547C44.5755 97.0651 37.8047 103.185 33.3125 108.914C28.8854 114.578 25.9557 118.745 24.5234 121.414L0.5 97.1953Z" fill="#F75590"/>
</svg>
