<svg width="175" height="116" viewBox="0 0 175 116" fill="none" xmlns="http://www.w3.org/2000/svg">
<path d="M89.3438 55.625L103.504 69.9805L97.5469 76.0352L89.7344 68.2227C86.349 64.9023 82.3451 63.2422 77.7227 63.2422C75.1836 63.2422 72.7096 63.6979 70.3008 64.6094C67.7617 65.5208 65.3529 66.7253 63.0742 68.2227L19.9102 100.645L-0.109375 78.9648L40.125 51.0352C40.3854 50.9049 43.0547 49.375 48.1328 46.4453C53.4714 43.776 57.9961 42.4414 61.707 42.4414C67.8268 42.4414 72.9701 43.4831 77.1367 45.5664C80.1966 47.194 84.2656 50.5469 89.3438 55.625ZM88.8555 78.5742L103.504 93.2227C107.931 96.8034 113.009 98.5938 118.738 98.5938C124.337 98.5938 129.871 97.194 135.34 94.3945C140.678 91.5951 145.268 88.0794 149.109 83.8477C150.542 82.0898 151.551 80.5273 152.137 79.1602C153.96 75.1888 154.871 70.7292 154.871 65.7812C154.871 62.5911 153.96 58.9453 152.137 54.8438C150.118 50.8073 147.84 47.194 145.301 44.0039L108.484 5.625L113.465 0.644531L124.109 10.4102L141.297 28.5742L164.344 51.4258C166.818 54.3555 168.608 56.8294 169.715 58.8477C173.165 64.707 174.891 70.1432 174.891 75.1562C174.891 78.5417 173.914 83.2292 171.961 89.2188C170.073 95.2083 168.185 99.4076 166.297 101.816L163.465 104.844C159.233 109.596 153.699 112.721 146.863 114.219C143.152 115 137.228 115.391 129.09 115.391C121.733 115.391 115.483 114.056 110.34 111.387C106.434 109.368 102.007 106.048 97.0586 101.426L82.3125 84.6289L88.8555 78.5742Z" fill="#F75590"/>
</svg>
