<svg width="175" height="103" viewBox="0 0 175 103" fill="none" xmlns="http://www.w3.org/2000/svg">
<path d="M8.12109 9.61719L69.5469 70.8477C73.1276 74.4284 76.2526 76.2188 78.9219 76.2188C81.2005 76.2188 83.2839 75.8607 85.1719 75.1445C87.125 74.3633 88.9805 73.1263 90.7383 71.4336L152.457 9.61719L174.137 28.7578L109.488 93.7969C106.559 96.7266 104.215 98.7122 102.457 99.7539C99.9831 101.382 97.1836 102.195 94.0586 102.195C90.8685 102.195 88.3294 101.707 86.4414 100.73C84.6185 99.6888 82.5677 98.0612 80.2891 95.8477L0.699219 16.6484L8.12109 9.61719ZM61.3438 21.043L82.9258 0.828125L102.652 21.043L82.9258 42.2344L61.3438 21.043Z" fill="#F75590"/>
</svg>
