<svg width="94" height="113" viewBox="0 0 94 113" fill="none" xmlns="http://www.w3.org/2000/svg">
<path d="M31.0898 42.6406L93.4922 104.164L86.2656 112.953L7.65234 39.2227C2.83464 34.6654 0.425781 31.2474 0.425781 28.9688C0.425781 27.9271 2.76953 24.9974 7.45703 20.1797C12.0143 15.5573 16.7995 11.0326 21.8125 6.60547C26.8906 2.30859 29.9831 0.160156 31.0898 0.160156C36.168 5.75911 39.8789 9.56771 42.2227 11.5859C44.3711 13.8646 46.0638 15.3945 47.3008 16.1758C48.3424 17.1523 49.1237 17.9661 49.6445 18.6172L32.8477 34.6328C32.1966 35.2839 31.6107 36.0651 31.0898 36.9766C30.6992 38.0833 30.5039 39.0924 30.5039 40.0039C30.5039 40.9154 30.6992 41.7943 31.0898 42.6406Z" fill="#F75590"/>
</svg>
