<svg width="94" height="113" viewBox="0 0 94 113" fill="none" xmlns="http://www.w3.org/2000/svg">
<path d="M62.9102 70.3594L0.507813 8.83594L7.73438 0.046875L86.3477 73.7773C91.1654 78.3346 93.5742 81.7526 93.5742 84.0312C93.5742 85.0729 91.2305 88.0026 86.543 92.8203C81.9857 97.4427 77.2005 101.967 72.1875 106.395C67.1094 110.691 64.0169 112.84 62.9102 112.84C57.832 107.241 54.1211 103.432 51.7773 101.414C49.6289 99.1354 47.9362 97.6055 46.6992 96.8242C45.6576 95.8477 44.8763 95.0339 44.3555 94.3828L61.1523 78.3672C61.8034 77.7161 62.3893 76.9349 62.9102 76.0234C63.3008 74.9167 63.4961 73.9076 63.4961 72.9961C63.4961 72.0846 63.3008 71.2057 62.9102 70.3594Z" fill="#F75590"/>
</svg>
