<svg width="176" height="116" viewBox="0 0 176 116" fill="none" xmlns="http://www.w3.org/2000/svg">
<path d="M57.2422 100.156L71.9883 84.2383L87.6133 99.375L72.4766 115.391L57.2422 100.156ZM81.8516 52.793L109.195 79.8438C112.125 83.1641 115.738 85.8984 120.035 88.0469C124.267 90.1302 128.531 91.1719 132.828 91.1719C135.758 91.1719 138.622 90.5208 141.422 89.2188C144.091 87.9818 146.565 86.1914 148.844 83.8477C150.992 81.569 152.587 79.0951 153.629 76.4258C154.54 73.7565 154.996 70.957 154.996 68.0273C154.996 63.7305 154.15 59.4661 152.457 55.2344C150.569 50.9375 148.16 47.194 145.23 44.0039L108.414 5.625L113.395 0.644531L141.227 28.5742L164.273 51.4258C167.073 54.2253 169.059 56.5365 170.23 58.3594C174.072 64.2839 175.992 70.1758 175.992 76.0352C175.992 79.7461 175.309 83.6198 173.941 87.6562C172.639 91.6276 170.458 95.1432 167.398 98.2031L160.465 106.797C154.28 112.656 147.281 115.586 139.469 115.586C135.172 115.586 131.103 114.577 127.262 112.559C123.355 110.736 120.068 108.001 117.398 104.355L83.8047 68.6133C81.0052 66.3346 78.401 65.1953 75.9922 65.1953C74.9505 65.1953 73.6159 65.4557 71.9883 65.9766C70.4258 66.4974 68.8958 67.1159 67.3984 67.832L20.4258 115.391L0.210938 94.5898L44.8398 48.5938C49.3971 44.8828 54.3125 43.0273 59.5859 43.0273C63.4922 43.0273 67.3659 43.8737 71.207 45.5664C74.9831 47.4544 78.5312 49.8633 81.8516 52.793Z" fill="#F75590"/>
</svg>
