<svg width="184" height="96" viewBox="0 0 184 96" fill="none" xmlns="http://www.w3.org/2000/svg">
<path d="M39.0273 4.64062C42.6732 2.10156 45.4727 0.832031 47.4258 0.832031C49.5742 0.832031 52.1133 2.10156 55.043 4.64062L86.293 35.793L123.891 4.64062C126.234 2.23177 128.676 1.02734 131.215 1.02734C133.103 1.02734 135.316 2.36198 137.855 5.03125L183.656 55.6172L148.012 90.1875C146.71 90.9688 145.798 91.5872 145.277 92.043C141.501 94.3867 138.767 95.5586 137.074 95.5586C133.754 95.5586 129.88 93.1172 125.453 88.2344L98.0117 61.1836L62.4648 90.9688C60.056 93.7682 57.5169 95.168 54.8477 95.168C52.6992 95.168 50.6484 94.4518 48.6953 93.0195C47.9792 92.6289 47.2305 92.043 46.4492 91.2617C45.668 90.4154 45.082 89.6667 44.6914 89.0156C44.1055 88.4948 43.4219 87.8112 42.6406 86.9648L0.453125 42.043L39.0273 4.64062ZM53.4805 27.0039L23.6953 53.957L33.2656 68.0195C36.1953 70.168 38.9297 71.2422 41.4688 71.2422C44.0078 71.2422 45.7982 70.7539 46.8398 69.7773L76.4297 42.043L66.4688 29.1523C64.5807 26.6784 61.9766 25.4414 58.6562 25.4414C56.3776 25.4414 54.6523 25.9622 53.4805 27.0039ZM137.074 27.5898L107.68 54.8359L116.469 66.8477C118.292 69.4518 120.896 70.7539 124.281 70.7539C127.471 70.7539 129.783 70.1029 131.215 68.8008L159.633 42.8242L148.402 28.7617C147.1 27.5898 145.993 26.7435 145.082 26.2227C144.105 25.832 142.966 25.6367 141.664 25.6367C139.906 25.6367 138.376 26.2878 137.074 27.5898Z" fill="#F75590"/>
</svg>
