<svg width="178" height="96" viewBox="0 0 178 96" fill="none" xmlns="http://www.w3.org/2000/svg">
<path d="M75.0898 6.20703C77.4987 4.05859 80.0378 2.52865 82.707 1.61719C85.2461 0.835938 88.0456 0.445312 91.1055 0.445312C95.2721 0.445312 99.4062 1.35677 103.508 3.17969C107.674 5.19792 111.353 7.86719 114.543 11.1875L177.141 73.5898C176.164 79.9701 173.69 84.918 169.719 88.4336C165.747 91.8841 161.158 93.6094 155.949 93.6094C149.243 93.6094 143.156 91.1354 137.688 86.1875L114.934 64.4102L120.5 57.9648L138.273 75.6406C139.25 76.6823 140.585 77.3333 142.277 77.5938C144.035 77.8542 146.118 77.9844 148.527 77.9844C150.09 77.9844 151.945 76.7799 154.094 74.3711C156.242 71.9622 157.316 69.7812 157.316 67.8281C157.316 66.7214 156.991 65.9076 156.34 65.3867L117.277 25.6406C114.217 22.8411 110.767 21.4414 106.926 21.4414C102.759 21.4414 99.0807 22.8411 95.8906 25.6406L21.4766 95.1719L0.480469 73.5898L75.0898 6.20703Z" fill="#F75590"/>
</svg>
