<svg width="177" height="97" viewBox="0 0 177 97" fill="none" xmlns="http://www.w3.org/2000/svg">
<path d="M113.465 4.42188C116.395 2.92448 118.803 1.85026 120.691 1.19922C122.449 0.548177 124.533 0.222656 126.941 0.222656C130.262 0.222656 133.126 1.36198 135.535 3.64062L176.062 56.375L170.887 60.9648L144.129 24.832C142.762 23.0742 141.362 22.1953 139.93 22.1953C138.953 22.1953 138.074 22.3906 137.293 22.7812C136.382 23.1719 135.503 23.5625 134.656 23.9531L103.699 43.7773L86.707 22.3906L113.465 4.42188ZM40.9062 23.5625C44.487 20.8932 48.3607 19.5586 52.5273 19.5586C56.6289 19.5586 59.819 21.1862 62.0977 24.4414L92.0781 60.9648C93.8359 64.4805 95.9193 67.0846 98.3281 68.7773C100.607 70.6654 103.211 71.6094 106.141 71.6094C108.484 71.6094 110.926 70.9258 113.465 69.5586L144.91 50.2227L159.656 68.3867L124.891 92.4102C122.482 93.7122 120.757 94.6562 119.715 95.2422C117.306 96.2839 115.158 96.8047 113.27 96.8047C110.73 96.8047 109.005 95.7956 108.094 93.7773L74.5 52.7617C73.1979 51.069 71.1471 49.6367 68.3477 48.4648C65.5482 47.2279 63.3346 46.6094 61.707 46.6094C60.6654 46.6094 57.9961 47.6836 53.6992 49.832C52.3971 50.4831 50.4766 51.4596 47.9375 52.7617L17.8594 73.1719L-0.109375 50.6133L40.9062 23.5625Z" fill="#F75590"/>
</svg>
