<svg width="175" height="100" viewBox="0 0 175 100" fill="none" xmlns="http://www.w3.org/2000/svg">
<path d="M174.34 86.4102L166.918 93.4414L105.492 32.2109C101.911 28.6302 98.7865 26.8398 96.1172 26.8398C93.9688 26.8398 91.918 27.1654 89.9648 27.8164C87.9466 28.5977 86.0586 29.8672 84.3008 31.625L22.4844 93.4414L0.902344 74.2031L65.5508 9.16406C68.2201 6.49479 69.8802 4.89974 70.5312 4.37891C73.5911 1.97005 77.0417 0.765625 80.8828 0.765625C85.8307 0.765625 90.4531 2.91406 94.75 7.21094L174.34 86.4102ZM79.3203 78.0117L100.902 99.2031L120.922 78.0117L100.902 57.7969L79.3203 78.0117Z" fill="#F75590"/>
</svg>
