<svg width="114" height="94" viewBox="0 0 114 94" fill="none" xmlns="http://www.w3.org/2000/svg">
<path d="M42.6953 31.6484C42.0443 31.0625 41.1979 30.7695 40.1562 30.7695C38.138 30.7695 36.3151 31.5833 34.6875 33.2109L18.6719 50.0078C18.0208 49.6172 17.2396 48.7383 16.3281 47.3711C15.2214 46.1992 13.8216 44.6042 12.1289 42.5859C10.2409 40.6979 6.30208 37.0521 0.3125 31.6484C0.3125 30.5417 2.42839 27.4492 6.66016 22.3711C10.957 17.293 15.5143 12.5078 20.332 8.01562C24.9544 3.32812 27.8841 0.984375 29.1211 0.984375C31.5299 0.984375 34.9154 3.39323 39.2773 8.21094L113.105 86.8242L104.316 93.9531L42.6953 31.6484Z" fill="#F75590"/>
</svg>
