<svg width="181" height="116" viewBox="0 0 181 116" fill="none" xmlns="http://www.w3.org/2000/svg">
<path d="M161.316 45.3711C166.785 50.7096 170.301 54.3229 171.863 56.2109C177.592 62.8516 180.457 69.0365 180.457 74.7656C180.457 78.5417 179.546 83.0339 177.723 88.2422C175.835 93.3854 173.621 97.5195 171.082 100.645C163.074 110.475 154.35 115.391 144.91 115.391C141.004 115.391 137.13 114.316 133.289 112.168C129.383 110.215 126.03 107.839 123.23 105.039L88.4648 70.1758C84.8841 66.5951 81.7591 64.8047 79.0898 64.8047C76.8112 64.8047 74.7279 65.1302 72.8398 65.7812C70.8867 66.5625 69.0312 67.832 67.2734 69.5898L22.4492 114.414L0.867188 95.1758L48.5234 47.2266C51.4531 44.2969 53.7643 42.2786 55.457 41.1719C57.9961 39.6094 60.7956 38.8281 63.8555 38.8281C67.0456 38.8281 69.5846 39.2839 71.4727 40.1953C73.3607 41.237 75.444 42.8971 77.7227 45.1758L119.324 87.3633C122.905 91.0091 126.486 92.832 130.066 92.832C133.908 92.832 137.391 92.2135 140.516 90.9766C143.445 89.8047 146.44 87.4284 149.5 83.8477C152.43 80.332 154.155 78.1836 154.676 77.4023C157.475 73.1055 158.875 69.0365 158.875 65.1953C158.875 62.9167 158.452 60.6706 157.605 58.457C156.824 56.1784 155.587 54.1602 153.895 52.4023L108.094 7.38281L115.516 0.351562L161.316 45.3711Z" fill="#F75590"/>
</svg>
