<svg width="139" height="101" viewBox="0 0 139 101" fill="none" xmlns="http://www.w3.org/2000/svg">
<path d="M56.5312 4.00391C57.5729 2.83203 58.7773 1.95312 60.1445 1.36719C61.3164 0.976562 62.8464 0.78125 64.7344 0.78125C66.6224 0.78125 68.6732 1.10677 70.8867 1.75781C73.1654 2.60417 75.1185 3.54818 76.7461 4.58984L127.137 54.9805L121.766 59.7656L88.9531 27.832C86.2839 25.1628 82.9961 23.8281 79.0898 23.8281C76.5508 23.8281 73.0352 25.1628 68.543 27.832L16.4922 58.0078L0.476562 37.9883L56.5312 4.00391ZM74.1094 54.9805C76.388 53.8086 78.3086 52.8971 79.8711 52.2461C83.1263 50.7487 85.8607 50 88.0742 50C91.1992 50 94.3568 51.3346 97.5469 54.0039L138.074 95.0195L132.898 100L113.074 79.1992C110.47 76.5299 107.15 75.1953 103.113 75.1953C98.556 75.1953 94.0964 76.5299 89.7344 79.1992L48.3281 100.391L31.5312 79.9805L74.1094 54.9805Z" fill="#F75590"/>
</svg>
