<svg width="142" height="101" viewBox="0 0 142 101" fill="none" xmlns="http://www.w3.org/2000/svg">
<path d="M59.3125 78.418C60.875 79.8503 62.5352 80.5664 64.293 80.5664C65.8555 80.5664 67.8411 79.7201 70.25 78.0273C72.6589 76.1393 74.3841 75 75.4258 74.6094C76.1419 74.4792 77.0208 73.8607 78.0625 72.7539C79.1042 71.8424 79.7878 71.3216 80.1133 71.1914L114.488 52.832L92.7109 30.3711C91.2135 28.9388 90.0091 27.8971 89.0977 27.2461C86.0378 25.2279 83.3685 24.2188 81.0898 24.2188C78.0299 24.2188 74.2214 25.293 69.6641 27.4414C67.6458 28.3529 65.6602 29.3945 63.707 30.5664L28.8438 52.832L59.3125 78.418ZM73.668 100C71.9102 99.8698 70.8359 99.8047 70.4453 99.8047C70.0547 99.8047 69.6641 99.6745 69.2734 99.4141C68.7526 99.1536 67.0273 98.2747 64.0977 96.7773C62.0794 95.8659 60.8099 95.2148 60.2891 94.8242C59.8984 94.5638 57.4245 92.5456 52.8672 88.7695C48.1797 85.0586 40.3672 78.6133 29.4297 69.4336C18.4922 60.1888 10.2891 53.3203 4.82031 48.8281L0.914062 41.6016L48.082 5.56641C48.6029 5.04557 50.3281 4.19922 53.2578 3.02734C57.2943 1.39974 61.0378 0.585938 64.4883 0.585938C67.9388 0.585938 71.5846 1.39974 75.4258 3.02734C77.9648 4.19922 79.5273 5.04557 80.1133 5.56641L139.293 61.6211L141.637 67.1875L95.0547 95.6055L85.6797 99.2188C83.1406 100.26 80.3411 100.781 77.2812 100.781C76.0443 100.781 75.0352 100.651 74.2539 100.391C73.8633 100.13 73.668 100 73.668 100Z" fill="#F75590"/>
</svg>
